<?xml version="1.0" encoding="UTF-8"?>
<svg version="1.1" xmlns="http://www.w3.org/2000/svg" width="265" height="212">
<path d="M0 0 C0.33 0.99 0.66 1.98 1 3 C-0.30710938 3.56654297 -0.30710938 3.56654297 -1.640625 4.14453125 C-18.60255496 11.98299888 -30.31851551 24.32955384 -37 42 C-43.29409529 59.44146888 -40.85051751 78.70082571 -33.31616211 95.29956055 C-26.33307038 109.73966339 -14.3762692 121.60069937 1 127 C1 127.99 1 128.98 1 130 C-4.01903289 130.00035574 -9.0380655 130.00045309 -14.05709839 130.00006104 C-17.74909587 129.99980881 -21.44109018 130.00052487 -25.13308716 130.00238037 C-35.00297498 130.00553072 -44.87231841 129.97997926 -54.74203587 129.9197216 C-59.66319724 129.89049602 -64.58387321 129.87270558 -69.50512695 129.87988281 C-74.33429792 129.88650534 -79.16254917 129.86387775 -83.99152946 129.82144547 C-85.80973978 129.81041529 -87.62804448 129.8095215 -89.44626045 129.81957626 C-102.61330642 129.88322476 -112.66944074 128.51264662 -122.5 118.8125 C-130.89645607 109.47696661 -130.59824384 97.21026552 -130.53125 85.43359375 C-130.53395116 83.74691037 -130.53783874 82.06022852 -130.54284668 80.37355042 C-130.54871084 76.85605902 -130.5402782 73.33897667 -130.52148438 69.8215332 C-130.49867872 65.33737146 -130.51184735 60.8541668 -130.53577423 56.37003994 C-130.55030119 52.89277572 -130.54559514 49.41573453 -130.53526306 45.93846321 C-130.53261569 44.28603054 -130.53579459 42.63357688 -130.54518127 40.98116875 C-130.60135606 28.31857329 -129.20109347 17.49722061 -120 8 C-112.4254848 1.93730249 -104.75640976 0.7043102 -95.3203125 0.68115234 C-93.90187042 0.66608391 -93.90187042 0.66608391 -92.45477295 0.65071106 C-89.34485441 0.61995241 -86.23502203 0.6028564 -83.125 0.5859375 C-80.95458249 0.56720977 -78.78417213 0.54763518 -76.61376953 0.5272522 C-70.90865349 0.47598105 -65.2035136 0.43634638 -59.49829102 0.39910889 C-53.70192516 0.35916255 -47.9056601 0.30794325 -42.109375 0.2578125 C-33.63285093 0.18606358 -25.15631302 0.11869209 -16.6796875 0.06005859 C-15.79947937 0.05384995 -14.91927124 0.0476413 -14.01239014 0.04124451 C-9.34146312 0.00993565 -4.67103111 -0.00605643 0 0 Z M-63 29 C-73.42268496 40.75678864 -75.83761854 55.83182071 -75 71 C-74.14360878 81.73251573 -70.64897201 93.10381786 -63 101 C-61.68 101 -60.36 101 -59 101 C-58.42499659 97.31997819 -59.21078278 95.44345727 -61.25 92.5 C-67.75696985 82.77651664 -70.31887797 69.36570307 -68.69140625 57.80859375 C-67.2230083 50.54457202 -65.150495 42.63228392 -60.6875 36.625 C-58.69485282 34.11356268 -58.69485282 34.11356268 -59.25 31.125 C-59.4975 30.42375 -59.745 29.7225 -60 29 C-60.99 29 -61.98 29 -63 29 Z M-51 39 C-58.32224373 50.26284055 -60.9913094 61.31135393 -58.46875 74.8515625 C-56.94073829 80.2162123 -54.80340649 85.18164509 -52 90 C-51.01 90.33 -50.02 90.66 -49 91 C-48.01 90.505 -48.01 90.505 -47 90 C-47 88.35 -47 86.7 -47 85 C-47.66 85 -48.32 85 -49 85 C-52.90125626 72.31478311 -54.01347278 61.90044821 -50 49 C-49.20335938 47.68128906 -49.20335938 47.68128906 -48.390625 46.3359375 C-46.65897708 43.88024758 -46.65897708 43.88024758 -47 40 C-48.32 39.67 -49.64 39.34 -51 39 Z " fill="#058CCB" transform="translate(157,40)"/>
<path d="M0 0 C12.28859786 10.67477379 20.7191125 24.85553287 22.6015625 41.203125 C23.51634759 57.46389668 20.24028066 72.64396729 9.79296875 85.60546875 C8.84164062 86.83330078 8.84164062 86.83330078 7.87109375 88.0859375 C-2.06906985 100.07580637 -16.22769664 107.32377788 -31.57421875 109.35546875 C-48.73813732 110.53664164 -63.48315831 107.07286555 -77.16796875 96.38671875 C-88.8619279 86.17130616 -97.24761198 72.1677795 -99.20703125 56.60546875 C-100.1501542 39.01399041 -97.90096201 23.55442748 -86.20703125 9.60546875 C-85.46453125 8.61546875 -84.72203125 7.62546875 -83.95703125 6.60546875 C-83.09078125 5.61546875 -83.09078125 5.61546875 -82.20703125 4.60546875 C-81.54703125 4.60546875 -80.88703125 4.60546875 -80.20703125 4.60546875 C-79.95695312 4.00605469 -79.706875 3.40664063 -79.44921875 2.7890625 C-74.77100147 -5.43459618 -61.86602266 -8.84153411 -53.45703125 -11.64453125 C-34.64475467 -15.98582585 -15.27987358 -11.92610757 0 0 Z M-53.20703125 26.60546875 C-54.89008255 29.97157134 -54.39182131 33.77733181 -54.41015625 37.48046875 C-54.41585632 38.3607373 -54.4215564 39.24100586 -54.4274292 40.14794922 C-54.4368818 42.01072994 -54.44341421 43.8735274 -54.44726562 45.73632812 C-54.45699236 48.59404366 -54.48802142 51.45104646 -54.51953125 54.30859375 C-54.52605908 56.11588113 -54.53131041 57.92317367 -54.53515625 59.73046875 C-54.54750305 60.58882324 -54.55984985 61.44717773 -54.5725708 62.33154297 C-54.5978472 64.98610715 -54.5978472 64.98610715 -54.20703125 68.60546875 C-53.21703125 69.26546875 -52.22703125 69.92546875 -51.20703125 70.60546875 C-47.01710893 68.10307334 -47.01710893 68.10307334 -42.83544922 65.58691406 C-38.99055525 63.26475924 -35.12969074 60.97784531 -31.23828125 58.734375 C-29.6027371 57.77495687 -27.96731812 56.81532533 -26.33203125 55.85546875 C-25.54135254 55.40840576 -24.75067383 54.96134277 -23.93603516 54.50073242 C-19.54751855 52.03722629 -19.54751855 52.03722629 -17.19921875 47.77734375 C-17.20308594 46.70226562 -17.20308594 46.70226562 -17.20703125 45.60546875 C-19.24674237 44.33140587 -21.28868389 43.06117673 -23.33203125 41.79296875 C-23.90179688 41.43654297 -24.4715625 41.08011719 -25.05859375 40.71289062 C-27.77475448 39.0307229 -30.48920073 37.46438401 -33.34765625 36.03515625 C-36.01373293 34.70211791 -38.38301777 33.23477841 -40.83203125 31.54296875 C-46.49497202 27.58034614 -46.49497202 27.58034614 -53.20703125 26.60546875 Z " fill="#3A4D58" transform="translate(221.20703125,56.39453125)"/>
<path d="M0 0 C1.88838279 2.77703351 1.99354164 4.18729234 1.875 7.625 C1.441875 9.295625 1.441875 9.295625 1 11 C0.36835937 11.29390625 -0.26328125 11.5878125 -0.9140625 11.890625 C-3.80286464 13.42699168 -4.16230611 15.09499558 -5.25 18.125 C-5.58515625 19.03507812 -5.9203125 19.94515625 -6.265625 20.8828125 C-6.50796875 21.58148438 -6.7503125 22.28015625 -7 23 C-7.84291332 20.60996728 -8.15384404 19.4145692 -7.2578125 17 C-6.88398437 16.34 -6.51015625 15.68 -6.125 15 C-4.63630494 12.33492353 -3.62844826 9.99515767 -3 7 C-5.42098591 7.09616377 -5.42098591 7.09616377 -8 8 C-9.66211189 10.30038125 -9.66211189 10.30038125 -10.75 13.1875 C-11.15734375 14.12980469 -11.5646875 15.07210937 -11.984375 16.04296875 C-15.97174257 27.65234279 -14.94826383 40.33929225 -9.91015625 51.390625 C-8.98136857 53.2812533 -7.99661652 55.14423131 -7 57 C-5.68 57 -4.36 57 -3 57 C-3 57.99 -3 58.98 -3 60 C-5.31 60 -7.62 60 -10 60 C-10 59.01 -10 58.02 -10 57 C-11.65 57.66 -13.3 58.32 -15 59 C-15 59.66 -15 60.32 -15 61 C-13.515 60.505 -13.515 60.505 -12 60 C-11.70703125 66.0546875 -11.70703125 66.0546875 -12 68 C-15.48152976 70.32101984 -17.86169011 70.69903201 -22 71 C-24 69 -24 69 -25 66 C-25.66 65.34 -26.32 64.68 -27 64 C-27.1953125 61.8359375 -27.1953125 61.8359375 -27.125 59.375 C-27.09792969 58.14910156 -27.09792969 58.14910156 -27.0703125 56.8984375 C-27.04710938 56.27195313 -27.02390625 55.64546875 -27 55 C-25.05218066 57.43477417 -23.54324356 59.86346072 -22.125 62.625 C-19.90849898 66.14532514 -18.93981527 67.01504618 -15 68 C-16.08231394 64.2610973 -17.51222524 61.01811587 -19.375 57.625 C-26.39475413 43.85628345 -27.73342215 29.65929378 -23.046875 15.0234375 C-20.325 7.1625 -20.325 7.1625 -18 6 C-17.79141366 11.11036538 -18.50079858 15.12759539 -20 20 C-20 20.99 -20 21.98 -20 23 C-19.34 23.33 -18.68 23.66 -18 24 C-17.34 21.03 -16.68 18.06 -16 15 C-15.01 15 -14.02 15 -13 15 C-12.34 11.37 -11.68 7.74 -11 4 C-8.36 4 -5.72 4 -3 4 C-2.67 3.01 -2.34 2.02 -2 1 C-1.34 0.67 -0.68 0.34 0 0 Z " fill="#41A0C6" transform="translate(113,73)"/>
<path d="M0 0 C0.495 1.485 0.495 1.485 1 3 C0.12859375 3.37769531 -0.7428125 3.75539062 -1.640625 4.14453125 C-13.9242762 9.82106703 -23.5106226 17.53599687 -31 29 C-31.495 28.01 -31.495 28.01 -32 27 C-31.0843974 25.77004051 -30.16745797 24.54107614 -29.25 23.3125 C-28.70730469 22.58289063 -28.16460937 21.85328125 -27.60546875 21.1015625 C-26.31778839 19.41598577 -24.95170781 17.79043209 -23.5625 16.1875 C-23.046875 15.465625 -22.53125 14.74375 -22 14 C-22.495 12.515 -22.495 12.515 -23 11 C-22.21625 10.71125 -21.4325 10.4225 -20.625 10.125 C-17.90328368 9.15087746 -17.90328368 9.15087746 -16 7 C-14.68 7 -13.36 7 -12 7 C-12.99 5.515 -12.99 5.515 -14 4 C-16.85305889 3.69781273 -19.48994926 3.59067177 -22.34594727 3.61181641 C-23.20960403 3.60655945 -24.0732608 3.60130249 -24.96308899 3.59588623 C-27.83104317 3.58263661 -30.69844595 3.59144714 -33.56640625 3.6015625 C-35.55981045 3.5995419 -37.55321393 3.59663057 -39.5466156 3.59286499 C-43.73402919 3.58843386 -47.92125122 3.59489325 -52.10864258 3.60888672 C-57.45952316 3.62590161 -62.80994976 3.61619143 -68.16081333 3.59816933 C-72.28311021 3.58728651 -76.40530102 3.59079975 -80.52760124 3.5985527 C-82.4990437 3.60054633 -84.47049596 3.59812503 -86.44192696 3.59111404 C-89.21097074 3.58343424 -91.97929995 3.59519797 -94.74829102 3.61181641 C-95.55435791 3.60574371 -96.3604248 3.59967102 -97.19091797 3.59341431 C-102.91423627 3.65655862 -107.67952494 4.91970549 -113 7 C-113 7.66 -113 8.32 -113 9 C-118.41176471 13 -118.41176471 13 -121 13 C-121.33 14.32 -121.66 15.64 -122 17 C-123.32 17.33 -124.64 17.66 -126 18 C-123.72505672 11.36474876 -120.08668855 7.78064616 -114.29296875 4.11328125 C-108.01562531 1.06550803 -102.18122878 0.69799025 -95.3203125 0.68115234 C-94.37468445 0.67110672 -93.4290564 0.6610611 -92.45477295 0.65071106 C-89.34485441 0.61995241 -86.23502203 0.6028564 -83.125 0.5859375 C-80.95458249 0.56720977 -78.78417213 0.54763518 -76.61376953 0.5272522 C-70.90865349 0.47598105 -65.2035136 0.43634638 -59.49829102 0.39910889 C-53.70192516 0.35916255 -47.9056601 0.30794325 -42.109375 0.2578125 C-33.63285093 0.18606358 -25.15631302 0.11869209 -16.6796875 0.06005859 C-15.79947937 0.05384995 -14.91927124 0.0476413 -14.01239014 0.04124451 C-9.34146312 0.00993565 -4.67103111 -0.00605643 0 0 Z " fill="#50A7CB" transform="translate(157,40)"/>
<path d="M0 0 C2.64081881 2.47679279 4.69667468 5.23974646 6.875 8.125 C13.85179803 16.71795679 22.93721306 22.4618804 33 27 C33 27.99 33 28.98 33 30 C14.38446879 30.00726146 -4.23051934 30.0003651 -22.84566021 29.86790943 C-27.78250657 29.83340132 -32.71903293 29.80848137 -37.65600586 29.80444336 C-42.49806449 29.80014993 -47.33943932 29.77165601 -52.18128395 29.72656822 C-54.00672228 29.71368369 -55.83224255 29.70925306 -57.65772057 29.71384621 C-75.83681602 29.74903436 -75.83681602 29.74903436 -84 24 C-82.3125 23.3125 -82.3125 23.3125 -80 23 C-78.93178764 23.70102592 -78.93178764 23.70102592 -77.84199524 24.41621399 C-73.74862197 26.69736747 -70.13848541 26.3965093 -65.52807617 26.34057617 C-64.10783646 26.34123329 -64.10783646 26.34123329 -62.65890503 26.34190369 C-59.53671479 26.33981762 -56.41506492 26.31649481 -53.29296875 26.29296875 C-51.12535394 26.28737216 -48.95773532 26.28310236 -46.79011536 26.28010559 C-41.09035734 26.26866186 -35.39082936 26.2391985 -29.69116211 26.20599365 C-23.87291577 26.17528275 -18.05463219 26.16159806 -12.23632812 26.14648438 C-0.82411779 26.11432854 10.58792196 26.06313769 22 26 C22 25.34 22 24.68 22 24 C20.02 23.67 18.04 23.34 16 23 C16 22.34 16 21.68 16 21 C15.34 21 14.68 21 14 21 C12.66666667 19.66666667 11.33333333 18.33333333 10 17 C9.175 16.608125 8.35 16.21625 7.5 15.8125 C4.19145278 13.41380327 3.38881509 10.82207251 1.9921875 7.05859375 C1.0559965 4.66993846 1.0559965 4.66993846 -2 3 C-1 1 -1 1 0 0 Z " fill="#46A3CA" transform="translate(125,140)"/>
<path d="M0 0 C2.31 0 4.62 0 7 0 C6.23121369 3.53331083 4.77775469 6.41874641 3.12109375 9.62890625 C1.07633027 13.9535454 -0.43892188 18.48283778 -2 23 C-2.66 22.67 -3.32 22.34 -4 22 C-6.00166328 31.91895641 -7.2973153 42.02046232 -5 52 C-4.34 52 -3.68 52 -3 52 C-2.34 54.64 -1.68 57.28 -1 60 C-2.32 60 -3.64 60 -5 60 C-5 59.34 -5 58.68 -5 58 C-5.99 57.67 -6.98 57.34 -8 57 C-8.3721042 55.67696283 -8.70630173 54.34262065 -9 53 C-9.66 52.67 -10.32 52.34 -11 52 C-11.625 48.9375 -11.625 48.9375 -12 46 C-12.33 46 -12.66 46 -13 46 C-13.57614726 35.79579181 -13.38542292 28.07828435 -8 19 C-7.34 19 -6.68 19 -6 19 C-6 17.35 -6 15.7 -6 14 C-5.34 14 -4.68 14 -4 14 C-3.855625 13.38125 -3.71125 12.7625 -3.5625 12.125 C-3 10 -3 10 -2 8 C-1.01 7.67 -0.02 7.34 1 7 C0.67 4.69 0.34 2.38 0 0 Z " fill="#087EB8" transform="translate(118,66)"/>
<path d="M0 0 C2.36328125 0.3203125 2.36328125 0.3203125 3.36328125 1.3203125 C3.27390322 2.84550526 3.11790979 4.36713179 2.92578125 5.8828125 C2.82394531 6.70910156 2.72210938 7.53539063 2.6171875 8.38671875 C2.53339844 9.02480469 2.44960937 9.66289063 2.36328125 10.3203125 C1.37328125 10.6503125 0.38328125 10.9803125 -0.63671875 11.3203125 C-0.30671875 10.5778125 0.02328125 9.8353125 0.36328125 9.0703125 C1.59110996 6.18147938 1.59110996 6.18147938 1.36328125 2.3203125 C-0.57633609 2.57997331 -0.57633609 2.57997331 -2.63671875 3.3203125 C-4.2236855 5.7816081 -5.50961089 8.07081602 -6.76171875 10.6953125 C-7.29055664 11.78743042 -7.29055664 11.78743042 -7.83007812 12.90161133 C-14.22391175 26.58822257 -13.57254523 40.74832705 -10.63671875 55.3203125 C-10.35634766 56.72796875 -10.35634766 56.72796875 -10.0703125 58.1640625 C-9.92722656 58.875625 -9.78414063 59.5871875 -9.63671875 60.3203125 C-10.62671875 59.9903125 -11.61671875 59.6603125 -12.63671875 59.3203125 C-12.63671875 58.0003125 -12.63671875 56.6803125 -12.63671875 55.3203125 C-13.29671875 55.3203125 -13.95671875 55.3203125 -14.63671875 55.3203125 C-14.96671875 55.9803125 -15.29671875 56.6403125 -15.63671875 57.3203125 C-15.60416667 55.33463542 -15.57161458 53.34895833 -15.5390625 51.36328125 C-15.55408658 49.11725789 -15.55408658 49.11725789 -16.63671875 46.3203125 C-16.73022048 44.59441176 -16.7674177 42.8651491 -16.76953125 41.13671875 C-16.77082031 40.12673828 -16.77210937 39.11675781 -16.7734375 38.07617188 C-16.76957031 37.02236328 -16.76570313 35.96855469 -16.76171875 34.8828125 C-16.76558594 33.83287109 -16.76945312 32.78292969 -16.7734375 31.70117188 C-16.77214844 30.68990234 -16.77085938 29.67863281 -16.76953125 28.63671875 C-16.76840332 27.71318604 -16.76727539 26.78965332 -16.76611328 25.83813477 C-16.63671875 23.3203125 -16.63671875 23.3203125 -16.06591797 21.11303711 C-15.4125495 19.23267264 -15.4125495 19.23267264 -16.63671875 17.3203125 C-15.64671875 16.3303125 -14.65671875 15.3403125 -13.63671875 14.3203125 C-12.64671875 14.6503125 -11.65671875 14.9803125 -10.63671875 15.3203125 C-10.43046875 14.5159375 -10.22421875 13.7115625 -10.01171875 12.8828125 C-5.28731459 0.64231081 -5.28731459 0.64231081 0 0 Z " fill="#7ABFDB" transform="translate(95.63671875,67.6796875)"/>
<path d="M0 0 C0.33 0.66 0.66 1.32 1 2 C0.109375 4.1796875 0.109375 4.1796875 -1.25 6.875 C-8.29132787 22.05602443 -9.21383283 38.47584766 -4.55859375 54.53125 C-4 57 -4 57 -5 60 C-7.47785723 56.33708062 -8.48964169 53.3890815 -9 49 C-9.66 49 -10.32 49 -11 49 C-15.14297298 40.07287965 -13.48672506 28.28684357 -11 19 C-10.34 18.34 -9.68 17.68 -9 17 C-8.29466203 15.68671383 -7.63574991 14.34834872 -7 13 C-5.98057101 10.93680552 -4.95963719 8.87435414 -3.9375 6.8125 C-3.41027344 5.74644531 -2.88304688 4.68039063 -2.33984375 3.58203125 C-1 1 -1 1 0 0 Z " fill="#118DBE" transform="translate(124,69)"/>
<path d="M0 0 C1.65 0.33 3.3 0.66 5 1 C3.68 1.33 2.36 1.66 1 2 C0.67 15.86 0.34 29.72 0 44 C-0.66 44 -1.32 44 -2 44 C-2.1953125 42.01432292 -2.390625 40.02864583 -2.5859375 38.04296875 C-2.92665391 35.70011858 -2.92665391 35.70011858 -5 33 C-5.56570083 28.50236326 -5.60563501 23.96636942 -5.75 19.4375 C-5.80542969 18.18001953 -5.86085937 16.92253906 -5.91796875 15.62695312 C-5.96050781 14.42876953 -6.00304687 13.23058594 -6.046875 11.99609375 C-6.08651367 10.89450928 -6.12615234 9.7929248 -6.16699219 8.65795898 C-6 6 -6 6 -4 4 C-3.01 4 -2.02 4 -1 4 C-0.67 2.68 -0.34 1.36 0 0 Z " fill="#708087" transform="translate(167,81)"/>
<path d="M0 0 C1.22589844 0.29197266 1.22589844 0.29197266 2.4765625 0.58984375 C3.41628906 0.82380859 3.41628906 0.82380859 4.375 1.0625 C4.705 3.0425 5.035 5.0225 5.375 7.0625 C9.83 8.0525 9.83 8.0525 14.375 9.0625 C14.375 9.7225 14.375 10.3825 14.375 11.0625 C11.735 11.0625 9.095 11.0625 6.375 11.0625 C6.31441406 11.68898438 6.25382812 12.31546875 6.19140625 12.9609375 C6.10761719 13.77820313 6.02382812 14.59546875 5.9375 15.4375 C5.85628906 16.24960938 5.77507812 17.06171875 5.69140625 17.8984375 C5.375 20.0625 5.375 20.0625 4.375 22.0625 C3.385 22.0625 2.395 22.0625 1.375 22.0625 C1.230625 23.17625 1.08625 24.29 0.9375 25.4375 C0.375 29.0625 0.375 29.0625 -0.625 31.0625 C-1.615 30.7325 -2.605 30.4025 -3.625 30.0625 C-3.48269192 28.64547487 -3.33599254 27.2288904 -3.1875 25.8125 C-3.10628906 25.02359375 -3.02507812 24.2346875 -2.94140625 23.421875 C-2.39622227 19.35655247 -1.20101053 15.84492527 0.375 12.0625 C1.035 12.0625 1.695 12.0625 2.375 12.0625 C2.375 9.0925 2.375 6.1225 2.375 3.0625 C0.04334966 2.72751699 0.04334966 2.72751699 -2.625 3.0625 C-4.93877147 4.95834109 -4.93877147 4.95834109 -6.625 7.0625 C-6.625 4.7525 -6.625 2.4425 -6.625 0.0625 C-3.99249612 -1.25375194 -2.82320944 -0.68563658 0 0 Z M14.375 2.0625 C15.035 2.0625 15.695 2.0625 16.375 2.0625 C16.705 3.7125 17.035 5.3625 17.375 7.0625 C16.385 7.7225 15.395 8.3825 14.375 9.0625 C14.375 6.7525 14.375 4.4425 14.375 2.0625 Z " fill="#0981B9" transform="translate(95.625,65.9375)"/>
<path d="M0 0 C1.88838279 2.77703351 1.99354164 4.18729234 1.875 7.625 C1.441875 9.295625 1.441875 9.295625 1 11 C0.36835937 11.29390625 -0.26328125 11.5878125 -0.9140625 11.890625 C-3.80286464 13.42699168 -4.16230611 15.09499558 -5.25 18.125 C-5.58515625 19.03507812 -5.9203125 19.94515625 -6.265625 20.8828125 C-6.50796875 21.58148438 -6.7503125 22.28015625 -7 23 C-7.84291332 20.60996728 -8.15384404 19.4145692 -7.2578125 17 C-6.88398437 16.34 -6.51015625 15.68 -6.125 15 C-4.63630494 12.33492353 -3.62844826 9.99515767 -3 7 C-5.42098591 7.09616377 -5.42098591 7.09616377 -8 8 C-9.66211189 10.30038125 -9.66211189 10.30038125 -10.75 13.1875 C-11.15734375 14.12980469 -11.5646875 15.07210937 -11.984375 16.04296875 C-15.33717863 25.80478548 -14.61175616 36.92652401 -13 47 C-13.66 47 -14.32 47 -15 47 C-18.36365432 36.64313552 -17.40853238 25.68975465 -16 15 C-15.01 15 -14.02 15 -13 15 C-12.34 11.37 -11.68 7.74 -11 4 C-8.36 4 -5.72 4 -3 4 C-2.67 3.01 -2.34 2.02 -2 1 C-1.34 0.67 -0.68 0.34 0 0 Z " fill="#45A3CD" transform="translate(113,73)"/>
<path d="M0 0 C2.94755144 0.43346345 4.97319069 0.98410983 7.55764771 2.51594543 C12.12678764 4.48577664 16.02928096 4.44002915 20.95263672 4.43237305 C21.9386235 4.4425647 22.92461029 4.45275635 23.94047546 4.46325684 C27.1869375 4.49335774 30.43310431 4.50264853 33.6796875 4.51171875 C35.935567 4.52856755 38.19143712 4.54671806 40.44729614 4.56611633 C46.37541779 4.61360038 52.30350141 4.64342025 58.23175049 4.66955566 C64.28478504 4.69936907 70.33768861 4.74589679 76.390625 4.79101562 C88.26034813 4.87703072 100.13009823 4.94438415 112 5 C112 4.34 112 3.68 112 3 C113.65 3.33 115.3 3.66 117 4 C117 4.99 117 5.98 117 7 C98.38446879 7.00726146 79.76948066 7.0003651 61.15433979 6.86790943 C56.21749343 6.83340132 51.28096707 6.80848137 46.34399414 6.80444336 C41.50193551 6.80014993 36.66056068 6.77165601 31.81871605 6.72656822 C29.99327772 6.71368369 28.16775745 6.70925306 26.34227943 6.71384621 C8.16318398 6.74903436 8.16318398 6.74903436 0 1 C0 0.67 0 0.34 0 0 Z " fill="#97CADF" transform="translate(41,163)"/>
<path d="M0 0 C2.31 0 4.62 0 7 0 C6.23121369 3.53331083 4.77775469 6.41874641 3.12109375 9.62890625 C1.07633027 13.9535454 -0.43892188 18.48283778 -2 23 C-2.66 22.67 -3.32 22.34 -4 22 C-4.66 22.99 -5.32 23.98 -6 25 C-6.99 24.67 -7.98 24.34 -9 24 C-9.83647066 28.77767928 -10.47503954 33.5621758 -11.0625 38.375 C-11.15337891 39.11105469 -11.24425781 39.84710938 -11.33789062 40.60546875 C-11.55972644 42.40350645 -11.7800221 44.20173405 -12 46 C-12.33 46 -12.66 46 -13 46 C-13.57614726 35.79579181 -13.38542292 28.07828435 -8 19 C-7.34 19 -6.68 19 -6 19 C-6 17.35 -6 15.7 -6 14 C-5.34 14 -4.68 14 -4 14 C-3.855625 13.38125 -3.71125 12.7625 -3.5625 12.125 C-3 10 -3 10 -2 8 C-1.01 7.67 -0.02 7.34 1 7 C0.67 4.69 0.34 2.38 0 0 Z " fill="#1384B6" transform="translate(118,66)"/>
<path d="M0 0 C2.48724903 3.31633204 4.23109915 6.29373156 6 10 C7.32 10 8.64 10 10 10 C10 10.99 10 11.98 10 13 C7.69 13 5.38 13 3 13 C3 12.01 3 11.02 3 10 C2.01 10.33 1.02 10.66 0 11 C0 7.37 0 3.74 0 0 Z M-8 5 C-7.34 5.33 -6.68 5.66 -6 6 C-5.67 6.99 -5.34 7.98 -5 9 C-2.49552484 10.21869929 -2.49552484 10.21869929 0 11 C-0.99 11.495 -0.99 11.495 -2 12 C-2 12.66 -2 13.32 -2 14 C-1.01 13.67 -0.02 13.34 1 13 C1.29296875 19.0546875 1.29296875 19.0546875 1 21 C-2.48152976 23.32101984 -4.86169011 23.69903201 -9 24 C-11 22 -11 22 -12 19 C-12.66 18.34 -13.32 17.68 -14 17 C-14.1953125 14.8359375 -14.1953125 14.8359375 -14.125 12.375 C-14.10695313 11.55773437 -14.08890625 10.74046875 -14.0703125 9.8984375 C-14.04710938 9.27195313 -14.02390625 8.64546875 -14 8 C-12.05218066 10.43477417 -10.54324356 12.86346072 -9.125 15.625 C-6.90849898 19.14532514 -5.93981527 20.01504618 -2 21 C-3.0269258 17.49133684 -4.25132479 14.43529202 -6.125 11.3125 C-8 8 -8 8 -8 5 Z " fill="#6AB7D6" transform="translate(100,120)"/>
<path d="M0 0 C0.495 1.485 0.495 1.485 1 3 C-2.96 4.65 -6.92 6.3 -11 8 C-11 7.34 -11 6.68 -11 6 C-9.02 5.01 -7.04 4.02 -5 3 C-38 2.67 -71 2.34 -105 2 C-105 1.67 -105 1.34 -105 1 C-92.34328608 0.86919375 -79.68656823 0.73877491 -67.02984524 0.60884857 C-61.15262597 0.54850443 -55.27540812 0.48802761 -49.39819336 0.42724609 C-43.72479123 0.36857729 -38.05138559 0.31025894 -32.37797737 0.25218201 C-30.21508722 0.22997988 -28.05219836 0.20765216 -25.88931084 0.18519592 C-22.85646771 0.15372894 -19.82362029 0.12271125 -16.79077148 0.09179688 C-15.89956604 0.08244614 -15.0083606 0.0730954 -14.09014893 0.0634613 C-9.39312354 0.01608533 -4.69726435 -0.00933134 0 0 Z " fill="#9DCDDF" transform="translate(157,40)"/>
<path d="M0 0 C1.07958984 -0.01611328 2.15917969 -0.03222656 3.27148438 -0.04882812 C4.30982422 -0.04947266 5.34816406 -0.05011719 6.41796875 -0.05078125 C7.35793701 -0.05376221 8.29790527 -0.05674316 9.26635742 -0.05981445 C12.22421016 0.37270309 13.60301335 1.34955716 15.8125 3.3125 C14.8125 4.3125 14.8125 4.3125 11.48608398 4.42602539 C10.01024444 4.42586629 8.53439931 4.42017314 7.05859375 4.41015625 C6.28314713 4.4087413 5.5077005 4.40732635 4.70875549 4.40586853 C2.22246506 4.40025345 -0.2637366 4.38769846 -2.75 4.375 C-4.43163933 4.36998694 -6.11328006 4.3654237 -7.79492188 4.36132812 C-11.92581566 4.35027913 -16.05664276 4.33300445 -20.1875 4.3125 C-19.1875 2.3125 -19.1875 2.3125 -16.38671875 1.20703125 C-11.00718996 -0.1924428 -5.52196473 -0.01666254 0 0 Z " fill="#2C3F48" transform="translate(185.1875,45.6875)"/>
<path d="M0 0 C0.33 0 0.66 0 1 0 C1.12375 0.78375 1.2475 1.5675 1.375 2.375 C1.79117993 5.14057822 1.79117993 5.14057822 4 7 C4.40047444 9.32275177 4.7397104 11.65739357 5 14 C5.66 14 6.32 14 7 14 C8.25 21.625 8.25 21.625 6 25 C3.62109375 24.4453125 3.62109375 24.4453125 1 23 C-1.8560078 15.48805665 -2.93752256 7.57571606 0 0 Z " fill="#148ABE" transform="translate(93,106)"/>
<path d="M0 0 C3.97468157 3.62578525 6.30014411 6.97153194 8.6875 11.875 C9.55955078 13.63457031 9.55955078 13.63457031 10.44921875 15.4296875 C16.64880738 29.70279584 16.11292529 45.48101806 11 60 C9.98260628 56.84109923 10.08622853 54.93253125 10.9375 51.75 C13.39434813 40.34080116 12.49134344 29.07896608 9 18 C8.505 16.1746875 8.505 16.1746875 8 14.3125 C7.505 13.1678125 7.505 13.1678125 7 12 C6.01 11.67 5.02 11.34 4 11 C3.0859375 9.2578125 3.0859375 9.2578125 2.375 7.125 C2.13523438 6.42632812 1.89546875 5.72765625 1.6484375 5.0078125 C1.43445313 4.34523438 1.22046875 3.68265625 1 3 C0.67 2.01 0.34 1.02 0 0 Z " fill="#B8C1C4" transform="translate(229,66)"/>
<path d="M0 0 C1.69107179 0.00560394 3.3821485 0.00987026 5.07322693 0.01286316 C9.49722028 0.02424922 13.92091228 0.05366173 18.3447876 0.0869751 C22.86979091 0.11781143 27.3948435 0.13139732 31.91992188 0.14648438 C40.77877732 0.1785382 49.63741035 0.22965792 58.49609375 0.29296875 C58.49609375 0.62296875 58.49609375 0.95296875 58.49609375 1.29296875 C52.33210744 1.43917483 46.16804518 1.5813908 40.00387573 1.71966553 C37.83745972 1.76841197 35.6710573 1.81776599 33.50466919 1.86773682 C12.19301159 2.35511485 12.19301159 2.35511485 2.3515625 2.25390625 C1.07055664 2.24166016 -0.21044922 2.22941406 -1.53027344 2.21679688 C-3.82152386 2.18515851 -6.11264589 2.14041196 -8.40332031 2.08007812 C-13.99453783 1.99751119 -17.59720385 2.29918044 -22.50390625 5.29296875 C-25.37890625 5.48046875 -25.37890625 5.48046875 -27.50390625 5.29296875 C-26.50390625 3.29296875 -26.50390625 3.29296875 -23.03540039 1.6862793 C-15.59247398 -0.63952656 -7.71260708 -0.0754044 0 0 Z " fill="#0683B8" transform="translate(70.50390625,42.70703125)"/>
<path d="M0 0 C1.8125 0.05078125 1.8125 0.05078125 4 0.3125 C4.721875 0.39113281 5.44375 0.46976563 6.1875 0.55078125 C6.785625 0.69902344 7.38375 0.84726563 8 1 C8.495 1.99 8.495 1.99 9 3 C-19.71 3 -48.42 3 -78 3 C-78 2.67 -78 2.34 -78 2 C-77.03755875 1.98969254 -76.07511749 1.97938507 -75.08351135 1.96876526 C-66.03332912 1.87119981 -56.98321823 1.76848217 -47.9331522 1.66066074 C-43.27992231 1.60538993 -38.62668619 1.55196342 -33.97338867 1.50268555 C-29.48649883 1.45510315 -24.99968788 1.40276283 -20.51289177 1.34705925 C-18.79721975 1.32660784 -17.08152607 1.30789947 -15.36581612 1.29092598 C-12.97109231 1.26694335 -10.57651898 1.23688088 -8.18188477 1.20532227 C-7.46547318 1.1995668 -6.74906158 1.19381134 -6.01094055 1.18788147 C-2.72243051 1.41761825 -2.72243051 1.41761825 0 0 Z " fill="#0787BE" transform="translate(143,164)"/>
<path d="M0 0 C0.33 0 0.66 0 1 0 C1.02505615 0.94319092 1.0501123 1.88638184 1.07592773 2.8581543 C1.17129809 6.37128663 1.27051725 9.88426708 1.37231445 13.3972168 C1.41551548 14.91507755 1.45720048 16.43298226 1.49731445 17.95092773 C1.55537812 20.13799259 1.61896656 22.32483918 1.68359375 24.51171875 C1.72025146 25.82615967 1.75690918 27.14060059 1.79467773 28.49487305 C1.96806031 31.45474664 2.33263678 34.12124802 3 37 C3.12375 37.7425 3.2475 38.485 3.375 39.25 C3.58125 39.8275 3.7875 40.405 4 41 C4.99 41.33 5.98 41.66 7 42 C7.7013284 44.32315031 8.36485174 46.65789079 9 49 C10.49486846 51.35959458 10.49486846 51.35959458 12 53 C9.03491714 51.67790678 7.03108067 50.3020018 4.875 47.875 C4.37742187 47.33617187 3.87984375 46.79734375 3.3671875 46.2421875 C-0.14491651 40.48233692 -0.285911 33.89265159 -0.1953125 27.34375 C-0.1924826 26.55601196 -0.18965271 25.76827393 -0.18673706 24.95666504 C-0.17565169 22.47094736 -0.1505701 19.9856065 -0.125 17.5 C-0.1149551 15.80208858 -0.10583191 14.10417145 -0.09765625 12.40625 C-0.07575071 8.27069086 -0.04130326 4.13540904 0 0 Z " fill="#208EC0" transform="translate(29,110)"/>
<path d="M0 0 C0.33 0.66 0.66 1.32 1 2 C0.109375 4.1796875 0.109375 4.1796875 -1.25 6.875 C-8.29132787 22.05602443 -9.21383283 38.47584766 -4.55859375 54.53125 C-4 57 -4 57 -5 60 C-10.15062989 52.83390623 -9.18221642 43.58929523 -9.1875 35.125 C-9.19974609 34.10019531 -9.21199219 33.07539062 -9.22460938 32.01953125 C-9.24219191 22.79455939 -8.31376499 14.68466277 -3.9375 6.4375 C-3.14666016 4.91962891 -3.14666016 4.91962891 -2.33984375 3.37109375 C-1 1 -1 1 0 0 Z " fill="#A0D7EB" transform="translate(124,69)"/>
<path d="M0 0 C0.33 0.66 0.66 1.32 1 2 C0.2578125 3.953125 0.2578125 3.953125 -0.875 6.25 C-5.7512063 16.13880998 -4.70182556 28.36359022 -3 39 C-3.66 39 -4.32 39 -5 39 C-8.36365432 28.64313552 -7.40853238 17.68975465 -6 7 C-5.01 7 -4.02 7 -3 7 C-2.690625 6.030625 -2.38125 5.06125 -2.0625 4.0625 C-1 1 -1 1 0 0 Z " fill="#89C7DE" transform="translate(103,81)"/>
<path d="M0 0 C2.475 0.495 2.475 0.495 5 1 C5 1.99 5 2.98 5 4 C-10.0298476 4.14090482 -24.98815948 3.73696984 -40 3 C-40 2.67 -40 2.34 -40 2 C-26.8 2 -13.6 2 0 2 C0 1.34 0 0.68 0 0 Z " fill="#8BC1D8" transform="translate(153,166)"/>
<path d="M0 0 C1.95095422 2.43869278 3.42529694 4.84478968 4.8125 7.625 C6.46270665 10.62362453 6.89564615 10.95384349 10.25 12.4375 C11.1575 12.623125 12.065 12.80875 13 13 C12.67 10.69 12.34 8.38 12 6 C12.99 5.67 13.98 5.34 15 5 C15.29296875 11.0546875 15.29296875 11.0546875 15 13 C11.51847024 15.32101984 9.13830989 15.69903201 5 16 C3 14 3 14 2 11 C1.34 10.34 0.68 9.68 0 9 C-0.1953125 6.8359375 -0.1953125 6.8359375 -0.125 4.375 C-0.10695313 3.55773437 -0.08890625 2.74046875 -0.0703125 1.8984375 C-0.04710938 1.27195313 -0.02390625 0.64546875 0 0 Z " fill="#4DA9CF" transform="translate(86,128)"/>
<path d="M0 0 C0.66 0.33 1.32 0.66 2 1 C1.21718695 2.33855056 0.42348123 3.67073644 -0.375 5 C-0.81585938 5.7425 -1.25671875 6.485 -1.7109375 7.25 C-2.34902344 8.11625 -2.34902344 8.11625 -3 9 C-3.66 9 -4.32 9 -5 9 C-5.33 9.66 -5.66 10.32 -6 11 C-6.33 10.01 -6.66 9.02 -7 8 C-7.54269531 8.30035156 -8.08539063 8.60070312 -8.64453125 8.91015625 C-9.35996094 9.29042969 -10.07539063 9.67070313 -10.8125 10.0625 C-11.52019531 10.44535156 -12.22789062 10.82820313 -12.95703125 11.22265625 C-15 12 -15 12 -18 11 C-17.67 10.01 -17.34 9.02 -17 8 C-16.34 8.33 -15.68 8.66 -15 9 C-12.43306259 7.56345705 -9.97241449 6.08511808 -7.5 4.5 C-5.02758551 2.91488192 -2.56693741 1.43654295 0 0 Z " fill="#43565F" transform="translate(185,117)"/>
<path d="M0 0 C0.28875 0.639375 0.5775 1.27875 0.875 1.9375 C1.82823451 4.15206079 1.82823451 4.15206079 4 5 C3.67 6.32 3.34 7.64 3 9 C2.67 8.67 2.34 8.34 2 8 C1.01 9.485 1.01 9.485 0 11 C-0.99 10.67 -1.98 10.34 -3 10 C-3.83647066 14.77767928 -4.47503954 19.5621758 -5.0625 24.375 C-5.15337891 25.11105469 -5.24425781 25.84710938 -5.33789062 26.60546875 C-5.55972644 28.40350645 -5.7800221 30.20173405 -6 32 C-6.33 32 -6.66 32 -7 32 C-7.57614726 21.79579181 -7.38542292 14.07828435 -2 5 C-1.34 5 -0.68 5 0 5 C0 3.35 0 1.7 0 0 Z " fill="#1E84B3" transform="translate(112,80)"/>
<path d="M0 0 C-2.64 0.66 -5.28 1.32 -8 2 C-8 3.32 -8 4.64 -8 6 C-13.11111111 10 -13.11111111 10 -16 10 C-16.33 11.32 -16.66 12.64 -17 14 C-18.32 14.33 -19.64 14.66 -21 15 C-18.41774169 7.46841326 -13.83309208 3.64805737 -7 0 C-4 -1 -4 -1 0 0 Z " fill="#6AB9D8" transform="translate(52,43)"/>
<path d="M0 0 C1 3 1 3 -0.046875 5.49609375 C-3.45425015 11.38084946 -7.07036726 16.58634104 -11.625 21.625 C-12.0797168 22.13345459 -12.53443359 22.64190918 -13.00292969 23.16577148 C-15.76007953 26.10110788 -18.14395831 27.81673811 -22 29 C-21.360625 28.38125 -20.72125 27.7625 -20.0625 27.125 C-9.60894864 17.12287252 -9.60894864 17.12287252 -5 4 C-4.01 4.33 -3.02 4.66 -2 5 C-1.34 3.35 -0.68 1.7 0 0 Z " fill="#BEC7CB" transform="translate(238,126)"/>
<path d="M0 0 C0.66 0 1.32 0 2 0 C2.33 1.65 2.66 3.3 3 5 C2.01 5.66 1.02 6.32 0 7 C0 4.69 0 2.38 0 0 Z M-10 6 C-2.25 5.875 -2.25 5.875 0 7 C0 7.66 0 8.32 0 9 C-2.64 9 -5.28 9 -8 9 C-8 10.65 -8 12.3 -8 14 C-8.66 14 -9.32 14 -10 14 C-11.125 8.25 -11.125 8.25 -10 6 Z " fill="#0382BC" transform="translate(110,68)"/>
<path d="M0 0 C0.33 0 0.66 0 1 0 C1.33 6.6 1.66 13.2 2 20 C2.66 20 3.32 20 4 20 C4.66 22.97 5.32 25.94 6 29 C5.01 28.67 4.02 28.34 3 28 C3 26.68 3 25.36 3 24 C2.34 24 1.68 24 1 24 C0.67 24.66 0.34 25.32 0 26 C0 17.42 0 8.84 0 0 Z " fill="#4CA2C7" transform="translate(80,99)"/>
<path d="M0 0 C0.33 0 0.66 0 1 0 C1.33 7.92 1.66 15.84 2 24 C1.67 23.34 1.34 22.68 1 22 C0.34 22 -0.32 22 -1 22 C-1.98837806 17.25726049 -1.97534604 13.01185962 -1.625 8.1875 C-1.58117187 7.50751953 -1.53734375 6.82753906 -1.4921875 6.12695312 C-1.13375235 1.13375235 -1.13375235 1.13375235 0 0 Z " fill="#3499BE" transform="translate(114,96)"/>
<path d="M0 0 C0.66 0.33 1.32 0.66 2 1 C1.34 1.391875 0.68 1.78375 0 2.1875 C-2.29166667 3.85416667 -2.29166667 3.85416667 -2.25 6.6875 C-2.12625 7.8321875 -2.12625 7.8321875 -2 9 C-5 10 -5 10 -8 9 C-8.4021875 9.8353125 -8.4021875 9.8353125 -8.8125 10.6875 C-10.10899496 13.21225334 -11.42476323 15.63714484 -13 18 C-13.66 18 -14.32 18 -15 18 C-13.53289058 13.15853891 -10.6487256 9.44051028 -7 6 C-6.34 6 -5.68 6 -5 6 C-4.731875 5.38125 -4.46375 4.7625 -4.1875 4.125 C-3 2 -3 2 0 0 Z " fill="#7B8A95" transform="translate(146,55)"/>
<path d="M0 0 C2.9719385 1.12451727 5.33440687 2.22293791 8 4 C8 4.99 8 5.98 8 7 C-1.9 7 -11.8 7 -22 7 C-22 6.67 -22 6.34 -22 6 C-14.08 5.67 -6.16 5.34 2 5 C2 4.34 2 3.68 2 3 C1.34 3 0.68 3 0 3 C0 2.01 0 1.02 0 0 Z " fill="#3493BD" transform="translate(145,161)"/>
<path d="M0 0 C1.93166016 0.01740234 1.93166016 0.01740234 3.90234375 0.03515625 C5.19269531 0.04417969 6.48304688 0.05320313 7.8125 0.0625 C8.81152344 0.07410156 9.81054688 0.08570313 10.83984375 0.09765625 C10.50984375 1.08765625 10.17984375 2.07765625 9.83984375 3.09765625 C3.89984375 3.09765625 -2.04015625 3.09765625 -8.16015625 3.09765625 C-6.84015625 2.43765625 -5.52015625 1.77765625 -4.16015625 1.09765625 C-3.16015625 0.09765625 -3.16015625 0.09765625 0 0 Z " fill="#2A3943" transform="translate(183.16015625,159.90234375)"/>
<path d="M0 0 C0.33 0 0.66 0 1 0 C1.33 4.62 1.66 9.24 2 14 C2.33 14 2.66 14 3 14 C3.13277344 14.75925781 3.26554687 15.51851562 3.40234375 16.30078125 C3.66724609 17.79158203 3.66724609 17.79158203 3.9375 19.3125 C4.11152344 20.29863281 4.28554687 21.28476563 4.46484375 22.30078125 C4.95746847 25.08189213 4.95746847 25.08189213 6 28 C5.34 28 4.68 28 4 28 C0.21138898 18.8897121 -2.3963926 9.85183624 0 0 Z " fill="#9BD0E6" transform="translate(104,97)"/>
<path d="M0 0 C0.93972656 0.23396484 0.93972656 0.23396484 1.8984375 0.47265625 C3.12433594 0.76462891 3.12433594 0.76462891 4.375 1.0625 C5.59316406 1.35833984 5.59316406 1.35833984 6.8359375 1.66015625 C9.04161284 2.22109319 9.04161284 2.22109319 11 1 C11.66 1.66 12.32 2.32 13 3 C12.34 3.66 11.68 4.32 11 5 C11.12375 6.423125 11.12375 6.423125 11.25 7.875 C11.1675 8.90625 11.085 9.9375 11 11 C8 13.375 8 13.375 5 15 C4.34 14.67 3.68 14.34 3 14 C3.969375 13.4225 4.93875 12.845 5.9375 12.25 C9.09469292 10.35207138 9.09469292 10.35207138 9.875 7.75 C9.91625 7.1725 9.9575 6.595 10 6 C9.278125 5.731875 8.55625 5.46375 7.8125 5.1875 C5.01528026 4.00645167 2.53580025 2.66638302 0 1 C0 0.67 0 0.34 0 0 Z " fill="#A6B1B7" transform="translate(194,96)"/>
<path d="M0 0 C0.99 0.33 1.98 0.66 3 1 C3.33 1.99 3.66 2.98 4 4 C4.99 4.33 5.98 4.66 7 5 C6.67 6.98 6.34 8.96 6 11 C4.35 10.67 2.7 10.34 1 10 C0.67 6.7 0.34 3.4 0 0 Z " fill="#067EB6" transform="translate(94,120)"/>
<path d="M0 0 C2.31 0.66 4.62 1.32 7 2 C7.061875 3.11375 7.061875 3.11375 7.125 4.25 C8.34439978 8.0823993 10.66568673 8.94265777 14 11 C14 11.66 14 12.32 14 13 C10.05241713 11.66803585 7.65244515 10.03695238 4.75 7.0625 C4.06421875 6.37285156 3.3784375 5.68320313 2.671875 4.97265625 C1 3 1 3 0 0 Z " fill="#768890" transform="translate(135,142)"/>
<path d="M0 0 C1.22589844 0.29197266 1.22589844 0.29197266 2.4765625 0.58984375 C3.41628906 0.82380859 3.41628906 0.82380859 4.375 1.0625 C4.705 3.3725 5.035 5.6825 5.375 8.0625 C4.715 8.0625 4.055 8.0625 3.375 8.0625 C3.045 6.4125 2.715 4.7625 2.375 3.0625 C0.04334966 2.72751699 0.04334966 2.72751699 -2.625 3.0625 C-4.93877147 4.95834109 -4.93877147 4.95834109 -6.625 7.0625 C-6.625 4.7525 -6.625 2.4425 -6.625 0.0625 C-3.99249612 -1.25375194 -2.82320944 -0.68563658 0 0 Z " fill="#188DBE" transform="translate(95.625,65.9375)"/>
<path d="M0 0 C2.1519437 3.22791555 2.20086443 4.28400809 2 8 C-2.61513112 6.68139111 -6.09897612 4.78644563 -10 2 C-6.79937313 0.39968656 -4.27728194 1.96826309 -1 3 C-0.67 2.01 -0.34 1.02 0 0 Z " fill="#77888E" transform="translate(182,82)"/>
<path d="M0 0 C1.35439668 2.70879335 1.06501451 5.00933268 1 8 C1.66 8.33 2.32 8.66 3 9 C2.34 10.32 1.68 11.64 1 13 C-1 10 -1 10 -2 7 C-2.33 7.99 -2.66 8.98 -3 10 C-3.66 9.67 -4.32 9.34 -5 9 C-4.34 7.35 -3.68 5.7 -3 4 C-2.34 4 -1.68 4 -1 4 C-0.67 2.68 -0.34 1.36 0 0 Z " fill="#1380B1" transform="translate(99,74)"/>
<path d="M0 0 C0.66 0 1.32 0 2 0 C2.33 0.66 2.66 1.32 3 2 C3.99 2 4.98 2 6 2 C6.268125 3.0725 6.53625 4.145 6.8125 5.25 C7.86227827 8.56508928 8.74612328 10.43877646 11 13 C7.91140053 11.64664405 5.992036 10.19113751 3.8125 7.625 C3.30332031 7.03976563 2.79414062 6.45453125 2.26953125 5.8515625 C0.92440727 3.88975091 0.42485598 2.323911 0 0 Z " fill="#7BBFDB" transform="translate(30,150)"/>
<path d="M0 0 C1.8125 0.05078125 1.8125 0.05078125 4 0.3125 C4.721875 0.39113281 5.44375 0.46976563 6.1875 0.55078125 C7.0846875 0.77314453 7.0846875 0.77314453 8 1 C8.33 1.66 8.66 2.32 9 3 C1.08 3 -6.84 3 -15 3 C-15 2.67 -15 2.34 -15 2 C-14.00097656 1.93941406 -13.00195312 1.87882813 -11.97265625 1.81640625 C-10.68230469 1.73261719 -9.39195312 1.64882812 -8.0625 1.5625 C-6.77472656 1.48128906 -5.48695313 1.40007812 -4.16015625 1.31640625 C-1.13976043 1.35080812 -1.13976043 1.35080812 0 0 Z " fill="#0C81B6" transform="translate(143,164)"/>
<path d="M0 0 C2.92611963 0.43031171 4.94300333 0.965802 7.5 2.5 C12.82003301 4.78001415 18.26583993 4.75327798 24 5 C24 5.33 24 5.66 24 6 C14.66348234 6.6053938 7.96186707 6.13668843 0 1 C0 0.67 0 0.34 0 0 Z " fill="#8ECBE6" transform="translate(41,163)"/>
<path d="M0 0 C0.99 0 1.98 0 3 0 C2.34 3.96 1.68 7.92 1 12 C0.01 11.67 -0.98 11.34 -2 11 C-2.25 3.375 -2.25 3.375 0 0 Z " fill="#0680B8" transform="translate(116,74)"/>
<path d="M0 0 C0.99 0.33 1.98 0.66 3 1 C1.73727116 4.78818652 0.00624144 6.40370057 -3 9 C-5.8125 9.8125 -5.8125 9.8125 -8 10 C-8 9.01 -8 8.02 -8 7 C-7.21625 6.938125 -6.4325 6.87625 -5.625 6.8125 C-4.75875 6.544375 -3.8925 6.27625 -3 6 C-1.68931667 3.55711372 -1.68931667 3.55711372 -1 1 C-0.67 0.67 -0.34 0.34 0 0 Z " fill="#526066" transform="translate(219,147)"/>
<path d="M0 0 C3.875 0.875 3.875 0.875 5 2 C5.36162029 3.32594105 5.69728039 4.65938457 6 6 C3.36 5.67 0.72 5.34 -2 5 C-1.34 3.35 -0.68 1.7 0 0 Z " fill="#2D414C" transform="translate(192,114)"/>
<path d="M0 0 C1.32 0.33 2.64 0.66 4 1 C4 1.99 4 2.98 4 4 C-2.93 4 -9.86 4 -17 4 C-17 3.67 -17 3.34 -17 3 C-11.06 3 -5.12 3 1 3 C0.67 2.01 0.34 1.02 0 0 Z " fill="#D0EDF4" transform="translate(154,166)"/>
<path d="M0 0 C0.99 0.495 0.99 0.495 2 1 C2.33333333 2.33333333 2.66666667 3.66666667 3 5 C3.66 5.33 4.32 5.66 5 6 C5 7.98 5 9.96 5 12 C4.01 12 3.02 12 2 12 C0.86235649 7.73383684 0 4.43513689 0 0 Z " fill="#3D99BF" transform="translate(108,118)"/>
<path d="M0 0 C0.99 0.33 1.98 0.66 3 1 C3 3.66666667 3 6.33333333 3 9 C2.01 9 1.02 9 0 9 C-0.66 6.36 -1.32 3.72 -2 1 C-1.34 0.67 -0.68 0.34 0 0 Z " fill="#0482C0" transform="translate(36,148)"/>
<path d="M0 0 C0.33 0.66 0.66 1.32 1 2 C-0.25 3.5 -0.25 3.5 -2 5 C-3.32 5 -4.64 5 -6 5 C-6.66 3.68 -7.32 2.36 -8 1 C-5.36 0.67 -2.72 0.34 0 0 Z " fill="#2D414C" transform="translate(216,149)"/>
<path d="M0 0 C0.66 0.66 1.32 1.32 2 2 C1.9765625 5.0390625 1.9765625 5.0390625 1.625 8.625 C1.51414062 9.81351563 1.40328125 11.00203125 1.2890625 12.2265625 C1.19367188 13.14179687 1.09828125 14.05703125 1 15 C0.67 15 0.34 15 0 15 C-0.06058594 14.30132812 -0.12117188 13.60265625 -0.18359375 12.8828125 C-0.26738281 11.97273438 -0.35117188 11.06265625 -0.4375 10.125 C-0.51871094 9.22007813 -0.59992188 8.31515625 -0.68359375 7.3828125 C-0.86989285 4.98889139 -0.86989285 4.98889139 -2 3 C-1.34 2.01 -0.68 1.02 0 0 Z " fill="#2A90C0" transform="translate(81,82)"/>
<path d="M0 0 C2.64752004 2.57784846 4.94432065 4.91648098 7 8 C7 9.32 7 10.64 7 12 C4 11 4 11 3.0859375 9.2578125 C2.85132813 8.55398437 2.61671875 7.85015625 2.375 7.125 C2.13523438 6.42632812 1.89546875 5.72765625 1.6484375 5.0078125 C1.43445313 4.34523438 1.22046875 3.68265625 1 3 C0.67 2.01 0.34 1.02 0 0 Z " fill="#96A2A8" transform="translate(229,66)"/>
<path d="M0 0 C2.475 0.495 2.475 0.495 5 1 C3.66666667 4.33333333 2.33333333 7.66666667 1 11 C-0.28317892 7.15046324 -0.06643637 4.05261865 0 0 Z " fill="#1A90C6" transform="translate(84,72)"/>
<path d="M0 0 C2.93706939 2.78248679 5.43415863 5.87938211 8 9 C7.67 9.66 7.34 10.32 7 11 C3.78796065 8.50174717 0.82506863 5.9297008 -2 3 C-1 1 -1 1 0 0 Z " fill="#7BC9DE" transform="translate(125,140)"/>
<path d="M0 0 C0.33 0.66 0.66 1.32 1 2 C0.0390625 3.734375 0.0390625 3.734375 -1.375 5.75 C-3.62688801 9.16837848 -4.68871103 11.84948043 -5 16 C-5.33 16 -5.66 16 -6 16 C-6 13.03 -6 10.06 -6 7 C-5.01 7 -4.02 7 -3 7 C-2.690625 6.030625 -2.38125 5.06125 -2.0625 4.0625 C-1 1 -1 1 0 0 Z " fill="#6BB5D6" transform="translate(103,81)"/>
<path d="M0 0 C1.3049427 4.05982172 0.73256315 6.44868981 -1.0625 10.25 C-1.371875 10.8275 -1.68125 11.405 -2 12 C-2.33 12 -2.66 12 -3 12 C-2.88541307 10.56163249 -2.75790884 9.12429034 -2.625 7.6875 C-2.55539063 6.88699219 -2.48578125 6.08648437 -2.4140625 5.26171875 C-2 3 -2 3 0 0 Z " fill="#63B0D0" transform="translate(94,79)"/>
<path d="M0 0 C0.66 0.33 1.32 0.66 2 1 C-0.83430453 4.2542015 -2.68607774 5.5206753 -7 6 C-7.33 4.68 -7.66 3.36 -8 2 C-7.01 2.33 -6.02 2.66 -5 3 C-3.32260138 2.01810813 -1.65532623 1.01866229 0 0 Z " fill="#8D999E" transform="translate(175,123)"/>
<path d="M0 0 C0.66 1.32 1.32 2.64 2 4 C-1.13498292 5.85776765 -3.37471432 6.20140476 -7 6 C-7 5.34 -7 4.68 -7 4 C-4.69 2.68 -2.38 1.36 0 0 Z " fill="#2C414B" transform="translate(178,124)"/>
<path d="M0 0 C1.98567708 0.5859375 3.97135417 1.171875 5.95703125 1.7578125 C5.95703125 2.4178125 5.95703125 3.0778125 5.95703125 3.7578125 C3.78735436 4.71247033 2.39374332 4.90182462 0.1328125 4.15625 C-1.61144305 3.39910865 -3.32924006 2.58172052 -5.04296875 1.7578125 C-2.04296875 -0.2421875 -2.04296875 -0.2421875 0 0 Z " fill="#273A44" transform="translate(192.04296875,89.2421875)"/>
<path d="M0 0 C2.22825644 2.22825644 2.69239369 3.65761628 3.625 6.625 C3.88539062 7.44226563 4.14578125 8.25953125 4.4140625 9.1015625 C4.60742188 9.72804687 4.80078125 10.35453125 5 11 C4.34 11 3.68 11 3 11 C2.896875 10.360625 2.79375 9.72125 2.6875 9.0625 C2.460625 8.381875 2.23375 7.70125 2 7 C1.01 6.67 0.02 6.34 -1 6 C-0.67 4.02 -0.34 2.04 0 0 Z " fill="#7CC2DD" transform="translate(120,129)"/>
<path d="M0 0 C1 3 1 3 0.22265625 4.82421875 C-0.8515625 6.54947917 -1.92578125 8.27473958 -3 10 C-3.66 10 -4.32 10 -5 10 C-5 8.02 -5 6.04 -5 4 C-4.01 4.33 -3.02 4.66 -2 5 C-1.34 3.35 -0.68 1.7 0 0 Z " fill="#97A2A7" transform="translate(238,126)"/>
<path d="M0 0 C0.66 0.33 1.32 0.66 2 1 C1.38511719 1.68835937 1.38511719 1.68835937 0.7578125 2.390625 C0.21898437 3.00421875 -0.31984375 3.6178125 -0.875 4.25 C-1.40867188 4.85328125 -1.94234375 5.4565625 -2.4921875 6.078125 C-3.9797487 7.97418746 -5.00322436 9.81290005 -6 12 C-6.66 12 -7.32 12 -8 12 C-6.49087042 7.01987239 -3.44338151 3.75740058 0 0 Z " fill="#ADB7BD" transform="translate(139,61)"/>
<path d="M0 0 C0 0.33 0 0.66 0 1 C-1.03060547 1.18175781 -1.03060547 1.18175781 -2.08203125 1.3671875 C-2.98308594 1.53476562 -3.88414063 1.70234375 -4.8125 1.875 C-5.70582031 2.03742187 -6.59914063 2.19984375 -7.51953125 2.3671875 C-10.22727846 2.91188449 -10.22727846 2.91188449 -13 5 C-15.6875 5.125 -15.6875 5.125 -18 5 C-16.68724357 2.37448713 -15.6756418 2.30493495 -12.9375 1.375 C-8.44936494 -0.0563123 -4.68447333 -0.25551673 0 0 Z " fill="#0D87C0" transform="translate(61,43)"/>
<path d="M0 0 C4.875 3.625 4.875 3.625 6 7 C3 7 3 7 1.3125 5.75 C0 4 0 4 0 0 Z " fill="#1E93C1" transform="translate(128,147)"/>
<path d="M0 0 C0 0.99 0 1.98 0 3 C1.65 3 3.3 3 5 3 C5 3.66 5 4.32 5 5 C1.7 4.67 -1.6 4.34 -5 4 C-5 3.34 -5 2.68 -5 2 C-2 0 -2 0 0 0 Z " fill="#0480B7" transform="translate(103,130)"/>
<path d="M0 0 C0.66 0.33 1.32 0.66 2 1 C1.67 2.32 1.34 3.64 1 5 C-1.64 5.33 -4.28 5.66 -7 6 C-7 5.34 -7 4.68 -7 4 C-6.030625 3.71125 -5.06125 3.4225 -4.0625 3.125 C-0.89335797 2.35785318 -0.89335797 2.35785318 0 0 Z " fill="#0787B9" transform="translate(101,139)"/>
<path d="M0 0 C1 3 1 3 0.125 4.8125 C-0.24625 5.534375 -0.6175 6.25625 -1 7 C-1.38290462 8.99110401 -1.72604615 10.99100513 -2 13 C-2.33 13 -2.66 13 -3 13 C-3.27429625 7.60550707 -3.36055646 4.48074195 0 0 Z " fill="#2C8DB4" transform="translate(92,90)"/>
<path d="M0 0 C3.37503669 1.1858237 5.64722731 2.27573689 8 5 C6.02 5 4.04 5 2 5 C2 4.34 2 3.68 2 3 C1.34 3 0.68 3 0 3 C0 2.01 0 1.02 0 0 Z " fill="#7FC3DD" transform="translate(145,161)"/>
<path d="M0 0 C3.11373372 1.49920512 6.12228205 3.08152136 9 5 C9 5.66 9 6.32 9 7 C4.58110387 5.64978174 2.65654657 3.73884332 0 0 Z " fill="#A8B2BA" transform="translate(140,148)"/>
<path d="M0 0 C0.99 0.33 1.98 0.66 3 1 C2.34 2.98 1.68 4.96 1 7 C0.01 6.01 -0.98 5.02 -2 4 C-1.34 4 -0.68 4 0 4 C0 2.68 0 1.36 0 0 Z " fill="#1593CA" transform="translate(83,127)"/>
<path d="M0 0 C0.66 0.33 1.32 0.66 2 1 C0.7934375 1.4021875 0.7934375 1.4021875 -0.4375 1.8125 C-1.283125 2.204375 -2.12875 2.59625 -3 3 C-3.33 3.99 -3.66 4.98 -4 6 C-5.32 5.67 -6.64 5.34 -8 5 C-6.71475739 4.13619741 -5.42157581 3.28419631 -4.125 2.4375 C-3.04605469 1.72400391 -3.04605469 1.72400391 -1.9453125 0.99609375 C-1.30335938 0.66738281 -0.66140625 0.33867188 0 0 Z " fill="#B5BFC4" transform="translate(185,117)"/>
<path d="M0 0 C4.43090471 1.20842856 6.98112756 2.51668565 10 6 C5.56909529 4.79157144 3.01887244 3.48331435 0 0 Z " fill="#B7C2C5" transform="translate(184,90)"/>
<path d="M0 0 C1.32 0.33 2.64 0.66 4 1 C4 2.32 4 3.64 4 5 C2.68 4.67 1.36 4.34 0 4 C0 2.68 0 1.36 0 0 Z " fill="#293F4B" transform="translate(229,130)"/>
<path d="M0 0 C2.31 0 4.62 0 7 0 C7 0.66 7 1.32 7 2 C5.35 2.66 3.7 3.32 2 4 C1.34 2.68 0.68 1.36 0 0 Z " fill="#1586B6" transform="translate(143,43)"/>
</svg>
